<svg version="1.1" viewBox="0.0 0.0 1025.5380577427823 376.6955380577428" fill="none" stroke="none" stroke-linecap="square" stroke-miterlimit="10" xmlns:xlink="http://www.w3.org/1999/xlink" xmlns="http://www.w3.org/2000/svg"><clipPath id="p.0"><path d="m0 0l1025.5381 0l0 376.69553l-1025.5381 0l0 -376.69553z" clip-rule="nonzero"/></clipPath><g clip-path="url(#p.0)"><path fill="#000000" fill-opacity="0.0" d="m0 0l1025.5381 0l0 376.69553l-1025.5381 0z" fill-rule="evenodd"/><path fill="#04b4ae" d="m9.79367 361.88684c46.71876 -43.00836 323.43695 -257.4223 411.48404 -310.79013c88.04709 -53.36784 88.497375 -2.1964073 116.79852 -9.416912c28.301147 -7.2205048 33.392334 -34.062977 53.00836 -33.906124c19.616089 0.15685129 48.066833 23.545677 64.68793 34.847233c16.621155 11.301556 4.941101 4.2374153 35.038757 32.962105c30.097656 28.724686 91.491394 94.807686 145.54718 139.38602c54.055786 44.578323 153.78107 103.91136 178.78754 128.08397c25.00647 24.172607 -8.833313 24.486298 -28.748657 16.9516c-19.915283 -7.5346985 -49.1156 -32.96405 -90.743225 -62.15976c-41.627563 -29.19574 -129.07428 -94.64987 -159.02234 -113.01459c-29.947998 -18.36473 -3.4456787 8.947815 -20.665771 2.826233c-17.220093 -6.121582 -62.88916 -33.590958 -82.654785 -39.555695c-19.765686 -5.9647217 -27.85321 -2.1973724 -35.93933 3.7673492c-8.086121 5.9647217 -2.9940186 29.352585 -12.577332 32.020996c-9.583374 2.6684113 -32.644165 -7.53421 -44.92273 -16.010498c-12.278564 -8.476288 -13.325562 -34.84723 -28.748657 -34.84723c-15.423157 0 -44.623474 25.429352 -63.79016 34.84723c-19.166718 9.417892 -41.776306 25.11322 -51.210022 21.660065c-9.433716 -3.4531555 17.368347 -49.442673 -5.392273 -42.379013c-22.76065 7.0636597 -89.543884 57.763077 -131.17148 84.76094c-41.627594 26.997879 -76.96651 55.5652 -118.5941 77.22624c-41.627594 21.661041 -177.89023 95.74832 -131.17146 52.73996z" fill-rule="evenodd"/></g></svg>