<?xml version="1.0" encoding="utf-8"?>
<!-- Generator: Adobe Illustrator 24.1.0, SVG Export Plug-In . SVG Version: 6.00 Build 0)  -->
<svg version="1.1" id="Layer_1" xmlns="http://www.w3.org/2000/svg" xmlns:xlink="http://www.w3.org/1999/xlink" x="0px" y="0px"
	 viewBox="80 170 860 670" style="enable-background:new 80 170 860 670;" xml:space="preserve">
<style type="text/css">
	.st0{fill:#FFFFFF;}
	.st1{fill:#606060;}
	.st2{fill:#00E7E9;}
	.st3{fill:#00D3DE;}
	.st4{fill:#586B87;}
	.st5{fill:none;stroke:#171819;stroke-width:6;stroke-linecap:round;stroke-linejoin:round;stroke-miterlimit:10;}
	.st6{fill:#FFDEC5;}
	.st7{fill:#F9C0B2;}
	.st8{fill:#FFABCD;}
	.st9{fill:#FFCAE2;}
	.st10{fill:#DD76A5;}
	.st11{fill:#00A8FF;}
	.st12{fill:#008AEE;}
	.st13{fill:none;stroke:#FFFFFF;stroke-width:6;stroke-linecap:round;stroke-linejoin:round;stroke-miterlimit:10;}
	.st14{fill:#FFE870;}
	.st15{fill:#FFAC73;}
	.st16{fill:#09C690;}
	.st17{fill:#FF4F7C;}
	.st18{fill:#171819;}
	.st19{fill:#637593;}
</style>
<path class="st2" d="M785,674.3H215c-22.1,0-40-17.9-40-40V284c0-22.1,17.9-40,40-40h570c22.1,0,40,17.9,40,40v350.3
	C825,656.4,807.1,674.3,785,674.3z"/>
<path class="st3" d="M806.8,250.5c1,3.6,1.6,7.3,1.6,11.2V612c0,22.1-17.9,40-40,40h-570c-8,0-15.5-2.4-21.8-6.4
	c4.9,16.6,20.2,28.8,38.4,28.8h570c22.1,0,40-17.9,40-40V284C825,270,817.7,257.6,806.8,250.5z"/>
<path class="st4" d="M582.3,597.2H417.7c-27.6,0-50-22.4-50-50V306.8c0-73.1,59.2-132.3,132.3-132.3h0
	c73.1,0,132.3,59.2,132.3,132.3v240.5C632.3,574.8,609.9,597.2,582.3,597.2z"/>
<path class="st5" d="M582.3,597.2H417.7c-27.6,0-50-22.4-50-50V306.8c0-73.1,59.2-132.3,132.3-132.3h0
	c73.1,0,132.3,59.2,132.3,132.3v240.5C632.3,574.8,609.9,597.2,582.3,597.2z"/>
<g>
	<path class="st6" d="M598.2,433.4c-10.3-23-3.3-65.2-3.3-65.2s23.2-3.3,28.7,4.7C632.5,386.2,628.4,433.4,598.2,433.4z"/>
	<path class="st7" d="M594.9,368.2c0,0-1.1,6.8-1.8,16.5c0,0,18.9-11.5,34.2,0c-0.8-4.5-1.9-9-3.8-11.8
		C618.1,364.8,594.9,368.2,594.9,368.2z"/>
	<path class="st5" d="M598.2,433.4c-10.3-23-3.3-65.2-3.3-65.2s23.2-3.3,28.7,4.7C632.5,386.2,628.4,433.4,598.2,433.4z"/>
</g>
<g>
	<path class="st8" d="M663.7,674.3H336.3v-35.6c0-29.7,20.2-56.2,50.8-66.7L500,533.4L612.9,572c30.6,10.5,50.8,37,50.8,66.7V674.3z
		"/>
	<path class="st9" d="M350.6,639.7c0-29.7,20.2-56.2,50.8-66.7l107.2-36.6l-8.6-2.9L387.1,572c-30.6,10.5-50.8,37-50.8,66.7v35.6
		h14.3V639.7z"/>
	<path class="st10" d="M612.9,572L500,533.4l-16.6,5.7l96.3,32.9c30.6,10.5,50.8,37,50.8,66.7v35.6h33.2v-35.6
		C663.7,609,643.5,582.4,612.9,572z"/>
	<path class="st5" d="M663.7,674.3H336.3v-35.6c0-29.7,20.2-56.2,50.8-66.7L500,533.4L612.9,572c30.6,10.5,50.8,37,50.8,66.7V674.3z
		"/>
</g>
<g>
	<path class="st6" d="M451.9,504v38.8c0,26.5,21.5,38.1,48.1,38.1l0,0c26.5,0,48.1-11.5,48.1-38.1V504H451.9z"/>
	<path class="st7" d="M451.9,525.7c14.4,7.2,30.7,11.2,48.1,11.2h0c17.3,0,33.7-4,48.1-11.2V504h-96.1V525.7z"/>
	<path class="st5" d="M451.9,504v38.8c0,26.5,21.5,38.1,48.1,38.1l0,0c26.5,0,48.1-11.5,48.1-38.1V504H451.9z"/>
</g>
<path class="st5" d="M785,674.3H215c-22.1,0-40-17.9-40-40V284c0-22.1,17.9-40,40-40h570c22.1,0,40,17.9,40,40v350.3
	C825,656.4,807.1,674.3,785,674.3z"/>
<g>
	<path class="st11" d="M885.1,364.6h-150c-27.6,0-50,22.4-50,50v0c0,27.6,22.4,50,50,50H763v23.8l23.8-23.8h98.2
		c27.6,0,50-22.4,50-50v0C935.1,387,912.7,364.6,885.1,364.6z"/>
	<g>
		<path class="st12" d="M764.3,463.5c0-6.3-5.1-11.4-11.4-11.4h-25.4c-15.6,0-29.5-7.1-38.7-18.3c7.5,18.1,25.4,30.8,46.2,30.8h29.2
			V463.5z"/>
		<path class="st12" d="M923.7,382.9c2.5,5.9,3.8,12.4,3.8,19.2v0c0,27.6-22.4,50-50,50h-91.2c-4.3,0-8.3,2.4-10.2,6.3l-11.9,23.2
			l-1.3,6.9l23.8-23.8h98.2c27.6,0,50-22.4,50-50v0C935.1,402.6,930.8,391.5,923.7,382.9z"/>
	</g>
	<circle class="st13" cx="763" cy="414" r="13"/>
	<circle class="st13" cx="810.1" cy="414" r="13"/>
	<circle class="st13" cx="858.2" cy="414" r="13"/>
	<path class="st5" d="M885.1,364.6h-150c-27.6,0-50,22.4-50,50v0c0,27.6,22.4,50,50,50H763v23.8l23.8-23.8h98.2
		c27.6,0,50-22.4,50-50v0C935.1,387,912.7,364.6,885.1,364.6z"/>
</g>
<g>
	<path class="st14" d="M136.3,182.1h150c27.6,0,50,22.4,50,50v0c0,27.6-22.4,50-50,50h-27.9V306l-23.8-23.8h-98.2
		c-27.6,0-50-22.4-50-50v0C86.3,204.5,108.7,182.1,136.3,182.1z"/>
	<g>
		<path class="st15" d="M257.1,281c0-6.3,5.1-11.4,11.4-11.4h25.4c15.6,0,29.5-7.1,38.7-18.3c-7.5,18.1-25.4,30.8-46.2,30.8h-29.2
			V281z"/>
		<path class="st15" d="M97.6,200.4c-2.5,5.9-3.8,12.4-3.8,19.2v0c0,27.6,22.4,50,50,50H235c4.3,0,8.3,2.4,10.2,6.3l11.9,23.2
			l1.3,6.9l-23.8-23.8h-98.2c-27.6,0-50-22.4-50-50v0C86.3,220.1,90.6,209,97.6,200.4z"/>
	</g>
	<circle class="st13" cx="258.4" cy="231.5" r="13"/>
	<circle class="st13" cx="211.3" cy="231.5" r="13"/>
	<circle class="st13" cx="163.2" cy="231.5" r="13"/>
	<path class="st5" d="M136.3,182.1h150c27.6,0,50,22.4,50,50v0c0,27.6-22.4,50-50,50h-27.9V306l-23.8-23.8h-98.2
		c-27.6,0-50-22.4-50-50v0C86.3,204.5,108.7,182.1,136.3,182.1z"/>
</g>
<g>
	<circle class="st16" cx="417.6" cy="777.4" r="57.3"/>
	<circle class="st17" cx="582.4" cy="777.4" r="57.3"/>
	<circle class="st5" cx="582.4" cy="777.4" r="57.3"/>
	<path class="st0" d="M582.4,762.4c-20.9,0-37.5,6.8-37.5,15.7v8.4c0.2,3.3,2.9,6,6,6h12.4c4.4,0,7.3-4.6,5.3-8.4
		c-1.3-2.6-0.2-6,2.2-7.5c5.5-3.3,17.3-3.5,23.1,0c2.7,1.3,3.6,4.9,2.2,7.5c-2,3.8,0.9,8.4,5.3,8.4h12.4c3.3-0.2,6-2.9,6-6V778
		C619.7,769.4,603.3,762.4,582.4,762.4z"/>
	<g>
		<path class="st0" d="M421.5,757.4h-30c-4.1,0-7.4,3.4-7.4,7.4v25.1c0,4.1,3.4,7.4,7.4,7.4h30c4.1,0,7.4-3.4,7.4-7.4v-25.1
			C429,760.6,425.6,757.4,421.5,757.4z"/>
		<path class="st0" d="M445.6,761.5c-0.4,0.1-0.9,0.3-1.3,0.5l-11.6,6.7V786l11.7,6.7c2.2,1.3,4.8,0.5,6.1-1.6
			c0.4-0.7,0.6-1.4,0.6-2.2v-23C451.1,763,448.5,760.8,445.6,761.5z"/>
	</g>
	<circle class="st5" cx="417.6" cy="777.4" r="57.3"/>
</g>
<g>
	<path class="st6" d="M395.4,314.4v107.2c0,57.8,46.8,102.2,104.6,102.2h0c57.8,0,104.6-44.4,104.6-102.2V314.4H395.4z"/>
	<path class="st7" d="M500,508.8L500,508.8c-57.8,0-104.6-44.4-104.6-102.2v15c0,57.8,46.8,102.2,104.6,102.2h0
		c57.8,0,104.6-44.4,104.6-102.2v-15C604.6,464.4,557.8,508.8,500,508.8z"/>
	<path class="st7" d="M395.4,376.1c66.3,0.3,126.3-18.9,162.2-48.3c6,25.5,32.9,46.1,47.1,45.1l0-58.6c-23.9,0-149.5,4.9-209.2,0
		C395.4,340.4,395.4,358.3,395.4,376.1z"/>
	<path class="st5" d="M395.4,314.4v107.2c0,57.8,46.8,102.2,104.6,102.2h0c57.8,0,104.6-44.4,104.6-102.2V314.4H395.4z"/>
	<g>
		<path class="st5" d="M469,385.8c-12.2-2.1-24.8-2.1-37,0"/>
		<circle class="st18" cx="442.7" cy="395" r="9.2"/>
		<path class="st5" d="M560.3,385.8c-12.2-2.1-24.8-2.1-37,0"/>
		<circle class="st18" cx="533.9" cy="395" r="9.2"/>
	</g>
	<path class="st5" d="M507.7,479.4c0,0,18.7,1.8,31.7-18.1"/>
	<path class="st5" d="M483.1,436.7c1.3,5.8,7.8,10.2,15.6,10.2s14.3-4.4,15.6-10.2"/>
</g>
<g>
	<path class="st19" d="M557.9,187.8c-8.1,18.3-12.7,39.1-12.7,61c0,62.2,36.9,114.6,87.1,130.4v-72.5
		C632.3,254.5,601.9,209.3,557.9,187.8z"/>
	<path class="st4" d="M557.9,187.8c-1.4,3.2-2.7,6.4-3.9,9.7c34.9,23.8,57.8,63.9,57.8,109.3v63.6c6.5,3.6,13.4,6.7,20.5,8.9v-72.5
		C632.3,254.5,601.9,209.3,557.9,187.8z"/>
	<path class="st5" d="M557.9,187.8c-8.1,18.3-12.7,39.1-12.7,61c0,62.2,36.9,114.6,87.1,130.4v-72.5
		C632.3,254.5,601.9,209.3,557.9,187.8z"/>
	<path class="st19" d="M500,174.5L500,174.5c-73.1,0-132.3,59.2-132.3,132.3v55.6c7.9,0.5,15.9,0.8,24,0.8
		c104.9,0,194.7-42.7,232-103.2C604.8,210,556.6,174.5,500,174.5z"/>
	<path class="st4" d="M500,174.5L500,174.5c-23.2,0-45,6-63.9,16.5c13.5-4.4,27.9-6.7,42.9-6.7h0c59.5,0,110.3,37.4,130.3,89.9
		c-4.7,7.7-10.3,15-16.5,22.1c12.5-11.1,23-23.3,31-36.3C604.8,210,556.6,174.5,500,174.5z"/>
	<path class="st5" d="M500,174.5L500,174.5c-73.1,0-132.3,59.2-132.3,132.3v55.6c7.9,0.5,15.9,0.8,24,0.8
		c104.9,0,194.7-42.7,232-103.2C604.8,210,556.6,174.5,500,174.5z"/>
	<path class="st5" d="M464.4,311.7c38-5.8,83.6-18.3,114.2-45"/>
	<path class="st5" d="M396.2,316.6c0,0,14.4,0.4,35.8-1.2"/>
</g>
<g>
	<g>
		<path class="st10" d="M547.7,561.5c-15,8.1-30.5,9.1-47.7,17.7c-17.2-8.6-32.7-9.6-47.7-17.7c-0.8-0.4-20.4-1-20.5-1
			c1.4-0.1-1.7,13.2,0.6,27.5c1.9,14.3,9.3,29.5,20.6,33.1c0.7,0.2,1.4,0.3,2.1,0.3c14.3,1.4,36.9-32.5,44.8-40.5
			c7.9,8,30.6,41.9,44.8,40.5c0.7-0.1,1.4-0.2,2.1-0.3c11.4-3.6,18.8-18.8,20.6-33.1c2.4-14.3-0.7-27.5,0.6-27.5
			C568.2,560.5,548.5,561.1,547.7,561.5z"/>
	</g>
	<g>
		<path class="st0" d="M452.5,549.6l47.5,31.2c0,0-25,35.3-37.3,33c-15.9-3-29.2-57.7-29.2-57.7L452.5,549.6z"/>
		<path class="st5" d="M452.5,549.6l47.5,31.2c0,0-25,35.3-37.3,33c-15.9-3-29.2-57.7-29.2-57.7L452.5,549.6z"/>
	</g>
	<g>
		<path class="st0" d="M547.5,549.6L500,580.9c0,0,25,35.3,37.3,33c15.9-3,29.2-57.7,29.2-57.7L547.5,549.6z"/>
		<path class="st5" d="M547.5,549.6L500,580.9c0,0,25,35.3,37.3,33c15.9-3,29.2-57.7,29.2-57.7L547.5,549.6z"/>
	</g>
	<line class="st5" x1="500" y1="580.9" x2="500" y2="644.4"/>
</g>
</svg>
